<svg xmlns="http://www.w3.org/2000/svg" viewBox="0 0 726 91.28"><defs><style>.cls-1{fill:#ff7d00;}</style></defs><title>Fichier 8</title><g id="Calque_2" data-name="Calque 2"><g id="LOGO"><path class="cls-1" d="M-137.82-135v-22.67a1,1,0,0,1,1-1h50.69v-13.23h-50.69a1,1,0,0,1-1-1v-22.48a1,1,0,0,1,1-1h54.16v-13.23H-143a8,8,0,0,0-8,8v72.74a8,8,0,0,0,8,8l60.45.1V-134h-54.21A1,1,0,0,1-137.82-135Z" transform="translate(240 212)"/><path class="cls-1" d="M278.12-208.23a6.09,6.09,0,0,0-11.21,0l-1.86,4.35-35.54,83.17,14.85,0,27.22-63.53a1,1,0,0,1,1.84,0l27.11,63.53,14.85,0L280-203.87Z" transform="translate(240 212)"/><path class="cls-1" d="M204.35-209.15l-1.3,1.9L173-163.41l-30.1-43.84-1.31-1.9a6.53,6.53,0,0,0-11.92,3.7h0v84.64h13.23V-183a1,1,0,0,1,1.82-.56l21,30.65L173-142.34h0l7.23-10.53,21-30.65a1,1,0,0,1,1.83.56v62.15h13.23v-84.64h0A6.54,6.54,0,0,0,204.35-209.15Z" transform="translate(240 212)"/><path class="cls-1" d="M328.61-196.49h30.25a1,1,0,0,1,1,1v74.56h13.23v-74.56a1,1,0,0,1,1-1h30.24v-13.23H328.61Z" transform="translate(240 212)"/><path class="cls-1" d="M431.79-134a1,1,0,0,1-1-1v-22.67a1,1,0,0,1,1-1h50.69v-13.23H431.79a1,1,0,0,1-1-1v-22.48a1,1,0,0,1,1-1H486v-13.23H425.56a8,8,0,0,0-8,8v72.74a8,8,0,0,0,8,8l60.45.1V-134Z" transform="translate(240 212)"/><path class="cls-1" d="M104.46-209.15l-1.3,1.9-30.1,43.84L43-207.25l-1.31-1.9a6.53,6.53,0,0,0-11.92,3.7h0v84.64H43V-183a1,1,0,0,1,1.82-.56l21,30.65,7.24,10.53h0l7.23-10.53,21-30.65a1,1,0,0,1,1.83.56v62.15h13.23v-84.64h0A6.54,6.54,0,0,0,104.46-209.15Z" transform="translate(240 212)"/><path class="cls-1" d="M-240-196.49h30.25a1,1,0,0,1,1,1v74.56h13.23v-74.56a1,1,0,0,1,1-1h30.24v-13.23H-240Z" transform="translate(240 212)"/><path class="cls-1" d="M-20.76-208.23a6.1,6.1,0,0,0-11.22,0l-1.86,4.35-35.54,83.17,14.86,0,27.21-63.53a1,1,0,0,1,1.84,0L1.64-120.74l14.86,0-35.41-83.15Z" transform="translate(240 212)"/></g></g></svg>