<svg xmlns="http://www.w3.org/2000/svg" xmlns:xlink="http://www.w3.org/1999/xlink" viewBox="0 0 726 452.94"><defs><style>.cls-1{fill:none;}.cls-2{clip-path:url(#clip-path);}.cls-3{fill:#eda935;}.cls-4{fill:#eda834;}.cls-5{fill:#eda734;}.cls-6{fill:#eea633;}.cls-7{fill:#eea532;}.cls-8{fill:#eea432;}.cls-9{fill:#eea231;}.cls-10{fill:#efa130;}.cls-11{fill:#efa030;}.cls-12{fill:#ef9f2f;}.cls-13{fill:#ef9e2e;}.cls-14{fill:#ef9d2e;}.cls-15{fill:#f09c2d;}.cls-16{fill:#f09b2c;}.cls-17{fill:#f09a2c;}.cls-18{fill:#f0992b;}.cls-19{fill:#f1982a;}.cls-20{fill:#f1972a;}.cls-21{fill:#f19629;}.cls-22{fill:#f19428;}.cls-23{fill:#f19328;}.cls-24{fill:#f29227;}.cls-25{fill:#f29127;}.cls-26{fill:#f29026;}.cls-27{fill:#f28f25;}.cls-28{fill:#f38e25;}.cls-29{fill:#f38d24;}.cls-30{fill:#f38c23;}.cls-31{fill:#f38b23;}.cls-32{fill:#f38a22;}.cls-33{fill:#f48921;}.cls-34{fill:#f48821;}.cls-35{fill:#f48720;}.cls-36{fill:#f4861f;}.cls-37{fill:#f5851f;}.cls-38{fill:#f5841e;}.cls-39{fill:#f5821e;}.cls-40{fill:#f5811d;}.cls-41{fill:#f5801c;}.cls-42{fill:#f67f1c;}.cls-43{fill:#f67e1b;}.cls-44{fill:#f67d1a;}.cls-45{fill:#f67c1a;}.cls-46{fill:#f67b19;}.cls-47{fill:#f77a18;}.cls-48{fill:#f77918;}.cls-49{fill:#f77817;}.cls-50{fill:#f77717;}.cls-51{fill:#f87616;}.cls-52{fill:#f87515;}.cls-53{fill:#f87415;}.cls-54{fill:#f87314;}.cls-55{fill:#f87213;}.cls-56{fill:#f97113;}.cls-57{fill:#f97012;}.cls-58{fill:#f96f12;}.cls-59{fill:#f96e11;}.cls-60{fill:#f96d10;}.cls-61{fill:#fa6c10;}.cls-62{fill:#fa6b0f;}.cls-63{fill:#fa6a0f;}.cls-64{fill:#fa690e;}.cls-65{fill:#fa680d;}.cls-66{fill:#fb670d;}.cls-67{fill:#fb660c;}.cls-68{fill:#fb650c;}.cls-69{fill:#fb640b;}.cls-70{fill:#fb630a;}.cls-71{fill:#fc620a;}.cls-72{fill:#fc6109;}.cls-73{fill:#fc6009;}.cls-74{fill:#fc5f08;}.cls-75{fill:#fc5e07;}.cls-76{fill:#fd5d07;}.cls-77{fill:#fd5c06;}.cls-78{fill:#fd5b06;}.cls-79{fill:#fd5b05;}.cls-80{fill:#fd5a05;}.cls-81{fill:#fe5904;}.cls-82{fill:#fe5804;}.cls-83{fill:#fe5703;}.cls-84{fill:#fe5602;}.cls-85{fill:#fe5502;}.cls-86{fill:#ff5401;}.cls-87{fill:#ff5300;}.cls-88{fill:#ff5200;}.cls-89{clip-path:url(#clip-path-2);}.cls-90{fill:#ff7d00;}</style><clipPath id="clip-path" transform="translate(240 212)"><path class="cls-1" d="M130-211a136.37,136.37,0,0,0-48.63,5.82,1.7,1.7,0,0,0,.75,3.3,123.4,123.4,0,0,1,29-.87c59.27,5.14,106.75,53.63,110.74,113A121.89,121.89,0,0,1,100.24,40.54a121.44,121.44,0,0,1-83.42-33,1.07,1.07,0,0,0-1.59,1.42A135.55,135.55,0,0,0,121.6,60.33,135.79,135.79,0,0,0,257.33-79.37C255.36-149.07,199.55-206.81,130-211Z"/></clipPath><clipPath id="clip-path-2" transform="translate(240 212)"><path class="cls-1" d="M91.3-194.47C36.83-191-7.43-146.76-10.95-92.29A110.2,110.2,0,0,0-7.72-57.56a1.19,1.19,0,0,0,2.33-.37A99.64,99.64,0,0,1-5-76.08C0-121.81,37-158.55,82.79-163.21A98.81,98.81,0,0,1,191.94-64.95a98.31,98.31,0,0,1-15.82,53.62,1.35,1.35,0,0,0,2.12,1.65A109.32,109.32,0,0,0,208.2-85,109.7,109.7,0,0,0,91.3-194.47Z"/></clipPath></defs><title>Fichier 2</title><g id="Calque_2" data-name="Calque 2"><g id="LOGO"><g class="cls-2"><rect class="cls-3" x="254.41" width="245.08" height="272.33"/><circle class="cls-3" cx="368.01" cy="137.08" r="131.74"/><circle class="cls-4" cx="368.01" cy="137.08" r="131.45"/><circle class="cls-5" cx="368.01" cy="137.08" r="131.16"/><circle class="cls-6" cx="368.01" cy="137.08" r="130.87"/><circle class="cls-7" cx="368.01" cy="137.08" r="130.58"/><circle class="cls-8" cx="368.01" cy="137.08" r="130.29"/><circle class="cls-9" cx="368.01" cy="137.08" r="130"/><circle class="cls-10" cx="368.01" cy="137.08" r="129.71"/><circle class="cls-11" cx="368.01" cy="137.08" r="129.42"/><circle class="cls-12" cx="368.01" cy="137.08" r="129.13"/><circle class="cls-13" cx="368.01" cy="137.08" r="128.84"/><circle class="cls-14" cx="368.01" cy="137.08" r="128.55"/><circle class="cls-15" cx="368.01" cy="137.08" r="128.25"/><circle class="cls-16" cx="368.01" cy="137.08" r="127.96"/><circle class="cls-17" cx="368.01" cy="137.08" r="127.67"/><circle class="cls-18" cx="368.01" cy="137.08" r="127.38"/><circle class="cls-19" cx="368.01" cy="137.08" r="127.09"/><circle class="cls-20" cx="368.01" cy="137.08" r="126.8"/><circle class="cls-21" cx="368.01" cy="137.08" r="126.51"/><circle class="cls-22" cx="368.01" cy="137.08" r="126.22"/><circle class="cls-23" cx="368.01" cy="137.08" r="125.93"/><circle class="cls-24" cx="368.01" cy="137.08" r="125.64"/><circle class="cls-25" cx="368.01" cy="137.08" r="125.35"/><circle class="cls-26" cx="368.01" cy="137.08" r="125.06"/><circle class="cls-27" cx="368.01" cy="137.08" r="124.76"/><circle class="cls-28" cx="368.01" cy="137.08" r="124.47"/><circle class="cls-29" cx="368.01" cy="137.08" r="124.18"/><circle class="cls-30" cx="368.01" cy="137.08" r="123.89"/><circle class="cls-31" cx="368.01" cy="137.08" r="123.6"/><circle class="cls-32" cx="368.01" cy="137.08" r="123.31"/><circle class="cls-33" cx="368.01" cy="137.08" r="123.02"/><circle class="cls-34" cx="368.01" cy="137.08" r="122.73"/><circle class="cls-35" cx="368.01" cy="137.08" r="122.44"/><circle class="cls-36" cx="368.01" cy="137.08" r="122.15"/><circle class="cls-37" cx="368.01" cy="137.08" r="121.86"/><circle class="cls-38" cx="368.01" cy="137.08" r="121.57"/><circle class="cls-39" cx="368.01" cy="137.08" r="121.28"/><circle class="cls-40" cx="368.01" cy="137.08" r="120.98"/><circle class="cls-41" cx="368.01" cy="137.08" r="120.69"/><circle class="cls-42" cx="368.01" cy="137.08" r="120.4"/><circle class="cls-43" cx="368.01" cy="137.08" r="120.11"/><circle class="cls-44" cx="368.01" cy="137.08" r="119.82"/><circle class="cls-45" cx="368.01" cy="137.08" r="119.53"/><circle class="cls-46" cx="368.01" cy="137.08" r="119.24"/><circle class="cls-47" cx="368.01" cy="137.08" r="118.95"/><circle class="cls-48" cx="368.01" cy="137.08" r="118.66"/><circle class="cls-49" cx="368.01" cy="137.08" r="118.37"/><circle class="cls-50" cx="368.01" cy="137.08" r="118.08"/><circle class="cls-51" cx="368.01" cy="137.08" r="117.79"/><circle class="cls-52" cx="368.01" cy="137.08" r="117.5"/><circle class="cls-53" cx="368.01" cy="137.08" r="117.2"/><circle class="cls-54" cx="368.01" cy="137.08" r="116.91"/><circle class="cls-55" cx="368.01" cy="137.08" r="116.62"/><circle class="cls-56" cx="368.01" cy="137.08" r="116.33"/><circle class="cls-57" cx="368.01" cy="137.08" r="116.04"/><circle class="cls-58" cx="368.01" cy="137.08" r="115.75"/><circle class="cls-59" cx="368.01" cy="137.08" r="115.46"/><circle class="cls-60" cx="368.01" cy="137.08" r="115.17"/><circle class="cls-61" cx="368.01" cy="137.08" r="114.88"/><circle class="cls-62" cx="368.01" cy="137.08" r="114.59"/><circle class="cls-63" cx="368.01" cy="137.08" r="114.3"/><circle class="cls-64" cx="368.01" cy="137.08" r="114.01"/><circle class="cls-65" cx="368.01" cy="137.08" r="113.72"/><circle class="cls-66" cx="368.01" cy="137.08" r="113.42"/><circle class="cls-67" cx="368.01" cy="137.08" r="113.13"/><circle class="cls-68" cx="368.01" cy="137.08" r="112.84"/><circle class="cls-69" cx="368.01" cy="137.08" r="112.55"/><circle class="cls-70" cx="368.01" cy="137.08" r="112.26"/><circle class="cls-71" cx="368.01" cy="137.08" r="111.97"/><circle class="cls-72" cx="368.01" cy="137.08" r="111.68"/><circle class="cls-73" cx="368.01" cy="137.08" r="111.39"/><circle class="cls-74" cx="368.01" cy="137.08" r="111.1"/><circle class="cls-75" cx="368.01" cy="137.08" r="110.81"/><circle class="cls-76" cx="368.01" cy="137.08" r="110.52"/><circle class="cls-77" cx="368.01" cy="137.08" r="110.23"/><circle class="cls-78" cx="368.01" cy="137.08" r="109.94"/><circle class="cls-79" cx="368.01" cy="137.08" r="109.64"/><circle class="cls-80" cx="368.01" cy="137.08" r="109.35"/><circle class="cls-81" cx="368.01" cy="137.08" r="109.06"/><circle class="cls-82" cx="368.01" cy="137.08" r="108.77"/><circle class="cls-83" cx="368.01" cy="137.08" r="108.48"/><circle class="cls-84" cx="368.01" cy="137.08" r="108.19"/><circle class="cls-85" cx="368.01" cy="137.08" r="107.9"/><circle class="cls-86" cx="368.01" cy="137.08" r="107.61"/><circle class="cls-86" cx="368.01" cy="137.08" r="107.32"/><circle class="cls-87" cx="368.01" cy="137.08" r="107.03"/><circle class="cls-88" cx="368.01" cy="137.08" r="106.74"/></g><g class="cls-89"><rect class="cls-3" x="228.27" y="13.45" width="219.93" height="190.07"/><path class="cls-3" d="M204.44-79.38A107.78,107.78,0,0,1,173.17-3.25V-4.47h-151v1.22A107.78,107.78,0,0,1-9.1-79.38C-9.1-138.84,38.7-187,97.67-187S204.44-138.84,204.44-79.38Z" transform="translate(240 212)"/><path class="cls-4" d="M204.24-79.38A107.54,107.54,0,0,1,173-3.4V-4.47H22.32V-3.4a107.53,107.53,0,0,1-31.21-76c0-59.34,47.71-107.45,106.56-107.45S204.24-138.72,204.24-79.38Z" transform="translate(240 212)"/><path class="cls-5" d="M204-79.38A107.36,107.36,0,0,1,172.88-3.54v-.93H22.46v.93A107.36,107.36,0,0,1-8.69-79.38c0-59.23,47.62-107.25,106.36-107.25S204-138.61,204-79.38Z" transform="translate(240 212)"/><path class="cls-6" d="M203.83-79.38A107.15,107.15,0,0,1,172.74-3.69v-.78H22.61v.78A107.12,107.12,0,0,1-8.49-79.38c0-59.12,47.53-107,106.16-107S203.83-138.5,203.83-79.38Z" transform="translate(240 212)"/><path class="cls-7" d="M203.63-79.38a107,107,0,0,1-31,75.55v-.64H22.75v.64a107,107,0,0,1-31-75.55c0-59,47.43-106.84,106-106.84S203.63-138.38,203.63-79.38Z" transform="translate(240 212)"/><path class="cls-8" d="M203.42-79.38a106.71,106.71,0,0,1-31,75.4v-.49H22.89V-4a106.75,106.75,0,0,1-31-75.4C-8.08-138.27,39.27-186,97.67-186S203.42-138.27,203.42-79.38Z" transform="translate(240 212)"/><path class="cls-9" d="M203.22-79.38A106.51,106.51,0,0,1,172.3-4.12v-.35H23v.35A106.56,106.56,0,0,1-7.88-79.38c0-58.78,47.26-106.43,105.55-106.43S203.22-138.16,203.22-79.38Z" transform="translate(240 212)"/><path class="cls-10" d="M203-79.38A106.35,106.35,0,0,1,172.16-4.27v-.2h-149v.2A106.34,106.34,0,0,1-7.67-79.38C-7.67-138,39.49-185.6,97.67-185.6S203-138,203-79.38Z" transform="translate(240 212)"/><path class="cls-11" d="M202.81-79.38A106.17,106.17,0,0,1,172-4.41v-.06H23.32v.06a106.17,106.17,0,0,1-30.79-75c0-58.55,47.07-106,105.14-106S202.81-137.93,202.81-79.38Z" transform="translate(240 212)"/><path class="cls-12" d="M202.61-79.38A105.93,105.93,0,0,1,171.87-4.56a104.88,104.88,0,0,1-33.35,22.68V-4.47H56.82V18.12A104.88,104.88,0,0,1,23.47-4.56,105.93,105.93,0,0,1-7.27-79.38c0-58.44,47-105.81,104.94-105.81S202.61-137.82,202.61-79.38Z" transform="translate(240 212)"/><path class="cls-13" d="M202.41-79.38A105.75,105.75,0,0,1,171.73-4.7a104.91,104.91,0,0,1-33.29,22.63V-4.47H56.9v22.4A104.91,104.91,0,0,1,23.61-4.7,105.74,105.74,0,0,1-7.06-79.38C-7.06-137.7,39.83-185,97.67-185S202.41-137.7,202.41-79.38Z" transform="translate(240 212)"/><path class="cls-14" d="M202.2-79.38A105.52,105.52,0,0,1,171.59-4.85a104.65,104.65,0,0,1-33.23,22.59V-4.47H57V17.74A104.5,104.5,0,0,1,23.76-4.85,105.49,105.49,0,0,1-6.86-79.38c0-58.21,46.8-105.4,104.53-105.4S202.2-137.59,202.2-79.38Z" transform="translate(240 212)"/><path class="cls-15" d="M202-79.38A105.32,105.32,0,0,1,171.44-5a104.37,104.37,0,0,1-33.16,22.54v-22H57.06v22A104.37,104.37,0,0,1,23.9-5,105.32,105.32,0,0,1-6.66-79.38c0-58.1,46.71-105.19,104.33-105.19S202-137.48,202-79.38Z" transform="translate(240 212)"/><path class="cls-16" d="M201.79-79.38A105.09,105.09,0,0,1,171.3-5.14a104.16,104.16,0,0,1-33.1,22.5V-4.47H57.14V17.36A104.28,104.28,0,0,1,24-5.14,105.09,105.09,0,0,1-6.45-79.38c0-58,46.61-105,104.12-105S201.79-137.36,201.79-79.38Z" transform="translate(240 212)"/><path class="cls-17" d="M201.59-79.38a104.88,104.88,0,0,1-30.44,74.1,104,104,0,0,1-33,22.45V-4.47H57.22V17.17a104,104,0,0,1-33-22.45A104.88,104.88,0,0,1-6.25-79.38c0-57.87,46.53-104.78,103.92-104.78S201.59-137.25,201.59-79.38Z" transform="translate(240 212)"/><path class="cls-18" d="M201.39-79.38A104.68,104.68,0,0,1,171-5.43,103.82,103.82,0,0,1,138,17V-4.47H57.3V17a103.93,103.93,0,0,1-33-22.42A104.68,104.68,0,0,1-6-79.38C-6-137.14,40.39-184,97.67-184S201.39-137.14,201.39-79.38Z" transform="translate(240 212)"/><path class="cls-19" d="M201.18-79.38A104.49,104.49,0,0,1,170.87-5.57,103.85,103.85,0,0,1,138,16.8V-4.47H57.38V16.8A103.7,103.7,0,0,1,24.48-5.57,104.46,104.46,0,0,1-5.84-79.38C-5.84-137,40.5-183.75,97.67-183.75S201.18-137,201.18-79.38Z" transform="translate(240 212)"/><path class="cls-20" d="M201-79.38A104.25,104.25,0,0,1,170.72-5.72a103.39,103.39,0,0,1-32.84,22.33V-4.47H57.46V16.61A103.39,103.39,0,0,1,24.62-5.72,104.25,104.25,0,0,1-5.64-79.38c0-57.53,46.25-104.17,103.31-104.17S201-136.91,201-79.38Z" transform="translate(240 212)"/><path class="cls-21" d="M200.78-79.38a104.09,104.09,0,0,1-30.2,73.52A103.31,103.31,0,0,1,137.8,16.42V-4.47H57.54V16.42A103.31,103.31,0,0,1,24.76-5.86,104.09,104.09,0,0,1-5.44-79.38c0-57.42,46.17-104,103.11-104S200.78-136.8,200.78-79.38Z" transform="translate(240 212)"/><path class="cls-22" d="M200.57-79.38A103.81,103.81,0,0,1,170.43-6a103,103,0,0,1-32.7,22.24V-4.47H57.62v20.7A102.9,102.9,0,0,1,24.91-6,103.81,103.81,0,0,1-5.23-79.38c0-57.3,46.07-103.76,102.9-103.76S200.57-136.68,200.57-79.38Z" transform="translate(240 212)"/><path class="cls-23" d="M200.37-79.38A103.65,103.65,0,0,1,170.29-6.15,102.84,102.84,0,0,1,137.65,16V-4.47H57.7V16A102.77,102.77,0,0,1,25.05-6.15,103.69,103.69,0,0,1-5-79.38c0-57.19,46-103.55,102.7-103.55S200.37-136.57,200.37-79.38Z" transform="translate(240 212)"/><path class="cls-24" d="M200.17-79.38a103.49,103.49,0,0,1-30,73.08,102.74,102.74,0,0,1-32.58,22.15V-4.47H57.77V15.85A102.74,102.74,0,0,1,25.19-6.3a103.49,103.49,0,0,1-30-73.08c0-57.08,45.89-103.35,102.5-103.35S200.17-136.46,200.17-79.38Z" transform="translate(240 212)"/><path class="cls-25" d="M200-79.38A103.27,103.27,0,0,1,170-6.44a102.35,102.35,0,0,1-32.51,22.1V-4.47H57.85V15.66A102.46,102.46,0,0,1,25.34-6.44a103.27,103.27,0,0,1-30-72.94c0-57,45.8-103.14,102.29-103.14S200-136.34,200-79.38Z" transform="translate(240 212)"/><ellipse class="cls-26" cx="337.67" cy="132.62" rx="102.09" ry="102.94"/><ellipse class="cls-27" cx="337.67" cy="132.62" rx="101.89" ry="102.74"/><ellipse class="cls-28" cx="337.67" cy="132.62" rx="101.68" ry="102.53"/><ellipse class="cls-29" cx="337.67" cy="132.62" rx="101.48" ry="102.33"/><ellipse class="cls-30" cx="337.67" cy="132.62" rx="101.28" ry="102.12"/><ellipse class="cls-31" cx="337.67" cy="132.62" rx="101.07" ry="101.91"/><ellipse class="cls-32" cx="337.67" cy="132.62" rx="100.87" ry="101.71"/><ellipse class="cls-33" cx="337.67" cy="132.62" rx="100.67" ry="101.5"/><ellipse class="cls-34" cx="337.67" cy="132.62" rx="100.46" ry="101.3"/><ellipse class="cls-35" cx="337.67" cy="132.62" rx="100.26" ry="101.09"/><ellipse class="cls-36" cx="337.67" cy="132.62" rx="100.06" ry="100.89"/><ellipse class="cls-37" cx="337.67" cy="132.62" rx="99.85" ry="100.68"/><ellipse class="cls-38" cx="337.67" cy="132.62" rx="99.65" ry="100.48"/><ellipse class="cls-39" cx="337.67" cy="132.62" rx="99.45" ry="100.27"/><ellipse class="cls-40" cx="337.67" cy="132.62" rx="99.24" ry="100.07"/><ellipse class="cls-41" cx="337.67" cy="132.62" rx="99.04" ry="99.86"/><ellipse class="cls-42" cx="337.67" cy="132.62" rx="98.83" ry="99.66"/><ellipse class="cls-43" cx="337.67" cy="132.62" rx="98.63" ry="99.45"/><ellipse class="cls-44" cx="337.67" cy="132.62" rx="98.43" ry="99.25"/><ellipse class="cls-45" cx="337.67" cy="132.62" rx="98.22" ry="99.04"/><ellipse class="cls-46" cx="337.67" cy="132.62" rx="98.02" ry="98.84"/><ellipse class="cls-47" cx="337.67" cy="132.62" rx="97.82" ry="98.63"/><ellipse class="cls-48" cx="337.67" cy="132.62" rx="97.61" ry="98.43"/><ellipse class="cls-49" cx="337.67" cy="132.62" rx="97.41" ry="98.22"/><ellipse class="cls-50" cx="337.67" cy="132.62" rx="97.21" ry="98.02"/><ellipse class="cls-51" cx="337.67" cy="132.62" rx="97" ry="97.81"/><ellipse class="cls-52" cx="337.67" cy="132.62" rx="96.8" ry="97.61"/><ellipse class="cls-53" cx="337.67" cy="132.62" rx="96.6" ry="97.4"/><ellipse class="cls-54" cx="337.67" cy="132.62" rx="96.39" ry="97.2"/><ellipse class="cls-55" cx="337.67" cy="132.62" rx="96.19" ry="96.99"/><ellipse class="cls-56" cx="337.67" cy="132.62" rx="95.99" ry="96.79"/><ellipse class="cls-57" cx="337.67" cy="132.62" rx="95.78" ry="96.58"/><ellipse class="cls-58" cx="337.67" cy="132.62" rx="95.58" ry="96.38"/><ellipse class="cls-59" cx="337.67" cy="132.62" rx="95.38" ry="96.17"/><ellipse class="cls-60" cx="337.67" cy="132.62" rx="95.17" ry="95.97"/><ellipse class="cls-61" cx="337.67" cy="132.62" rx="94.97" ry="95.76"/><ellipse class="cls-62" cx="337.67" cy="132.62" rx="94.77" ry="95.56"/><ellipse class="cls-63" cx="337.67" cy="132.62" rx="94.56" ry="95.35"/><ellipse class="cls-64" cx="337.67" cy="132.62" rx="94.36" ry="95.15"/><ellipse class="cls-65" cx="337.67" cy="132.62" rx="94.16" ry="94.94"/><ellipse class="cls-66" cx="337.67" cy="132.62" rx="93.95" ry="94.74"/><ellipse class="cls-67" cx="337.67" cy="132.62" rx="93.75" ry="94.53"/><ellipse class="cls-68" cx="337.67" cy="132.62" rx="93.55" ry="94.32"/><ellipse class="cls-69" cx="337.67" cy="132.62" rx="93.34" ry="94.12"/><ellipse class="cls-70" cx="337.67" cy="132.62" rx="93.14" ry="93.91"/><ellipse class="cls-71" cx="337.67" cy="132.62" rx="92.94" ry="93.71"/><ellipse class="cls-72" cx="337.67" cy="132.62" rx="92.73" ry="93.5"/><ellipse class="cls-73" cx="337.67" cy="132.62" rx="92.53" ry="93.3"/><ellipse class="cls-74" cx="337.67" cy="132.62" rx="92.32" ry="93.09"/><ellipse class="cls-75" cx="337.67" cy="132.62" rx="92.12" ry="92.89"/><ellipse class="cls-76" cx="337.67" cy="132.62" rx="91.92" ry="92.68"/><ellipse class="cls-77" cx="337.67" cy="132.62" rx="91.71" ry="92.48"/><ellipse class="cls-78" cx="337.67" cy="132.62" rx="91.51" ry="92.27"/><ellipse class="cls-79" cx="337.67" cy="132.62" rx="91.31" ry="92.07"/><ellipse class="cls-80" cx="337.67" cy="132.62" rx="91.1" ry="91.86"/><ellipse class="cls-81" cx="337.67" cy="132.62" rx="90.9" ry="91.66"/><ellipse class="cls-82" cx="337.67" cy="132.62" rx="90.7" ry="91.45"/><ellipse class="cls-83" cx="337.67" cy="132.62" rx="90.49" ry="91.25"/><ellipse class="cls-84" cx="337.67" cy="132.62" rx="90.29" ry="91.04"/><ellipse class="cls-85" cx="337.67" cy="132.62" rx="90.09" ry="90.84"/><ellipse class="cls-86" cx="337.67" cy="132.62" rx="89.88" ry="90.63"/><ellipse class="cls-86" cx="337.67" cy="132.62" rx="89.68" ry="90.43"/><ellipse class="cls-87" cx="337.67" cy="132.62" rx="89.48" ry="90.22"/><ellipse class="cls-88" cx="337.67" cy="132.62" rx="89.27" ry="90.02"/></g><path class="cls-90" d="M-137.82,226.62V204a1,1,0,0,1,1-1h50.69V189.72h-50.69a1,1,0,0,1-1-1V166.23a1,1,0,0,1,1-1h54.16V152H-143a8,8,0,0,0-8,8v72.74a8,8,0,0,0,8,8l60.45.1V227.62h-54.21A1,1,0,0,1-137.82,226.62Z" transform="translate(240 212)"/><path class="cls-90" d="M278.12,153.42a6.09,6.09,0,0,0-11.21,0l-1.86,4.35-35.54,83.18,14.85,0,27.22-63.53a1,1,0,0,1,1.84,0l27.11,63.53,14.85,0L280,157.78Z" transform="translate(240 212)"/><path class="cls-90" d="M204.35,152.5l-1.3,1.9L173,198.24l-30.1-43.84-1.31-1.9a6.53,6.53,0,0,0-11.92,3.7h0v84.64h13.23V178.7a1,1,0,0,1,1.82-.57l21,30.65L173,219.32h0l7.23-10.54,21-30.65a1,1,0,0,1,1.83.57v62.14h13.23V156.2h0A6.54,6.54,0,0,0,204.35,152.5Z" transform="translate(240 212)"/><path class="cls-90" d="M328.61,165.17h30.25a1,1,0,0,1,1,1v74.56h13.23V166.17a1,1,0,0,1,1-1h30.24V151.94H328.61Z" transform="translate(240 212)"/><path class="cls-90" d="M431.79,227.62a1,1,0,0,1-1-1V204a1,1,0,0,1,1-1h50.69V189.72H431.79a1,1,0,0,1-1-1V166.23a1,1,0,0,1,1-1H486V152H425.56a8,8,0,0,0-8,8v72.74a8,8,0,0,0,8,8l60.45.1V227.62Z" transform="translate(240 212)"/><path class="cls-90" d="M104.46,152.5l-1.3,1.9-30.1,43.84L43,154.4l-1.31-1.9a6.53,6.53,0,0,0-11.92,3.7h0v84.64H43V178.7a1,1,0,0,1,1.82-.57l21,30.65,7.24,10.54h0l7.23-10.54,21-30.65a1,1,0,0,1,1.83.57v62.14h13.23V156.2h0A6.54,6.54,0,0,0,104.46,152.5Z" transform="translate(240 212)"/><path class="cls-90" d="M-240,165.17h30.25a1,1,0,0,1,1,1v74.56h13.23V166.17a1,1,0,0,1,1-1h30.24V151.94H-240Z" transform="translate(240 212)"/><path class="cls-90" d="M-20.76,153.42a6.1,6.1,0,0,0-11.22,0l-1.86,4.35-35.54,83.18,14.86,0,27.21-63.53a1,1,0,0,1,1.84,0L1.64,240.91l14.86,0-35.41-83.16Z" transform="translate(240 212)"/></g></g></svg>