<svg xmlns="http://www.w3.org/2000/svg" xmlns:xlink="http://www.w3.org/1999/xlink" viewBox="0 0 271.49 272.33"><defs><style>.cls-1{fill:none;}.cls-2{clip-path:url(#clip-path);}.cls-3{fill:#eda935;}.cls-4{fill:#eda834;}.cls-5{fill:#eda734;}.cls-6{fill:#eea633;}.cls-7{fill:#eea532;}.cls-8{fill:#eea432;}.cls-9{fill:#eea231;}.cls-10{fill:#efa130;}.cls-11{fill:#efa030;}.cls-12{fill:#ef9f2f;}.cls-13{fill:#ef9e2e;}.cls-14{fill:#ef9d2e;}.cls-15{fill:#f09c2d;}.cls-16{fill:#f09b2c;}.cls-17{fill:#f09a2c;}.cls-18{fill:#f0992b;}.cls-19{fill:#f1982a;}.cls-20{fill:#f1972a;}.cls-21{fill:#f19629;}.cls-22{fill:#f19428;}.cls-23{fill:#f19328;}.cls-24{fill:#f29227;}.cls-25{fill:#f29127;}.cls-26{fill:#f29026;}.cls-27{fill:#f28f25;}.cls-28{fill:#f38e25;}.cls-29{fill:#f38d24;}.cls-30{fill:#f38c23;}.cls-31{fill:#f38b23;}.cls-32{fill:#f38a22;}.cls-33{fill:#f48921;}.cls-34{fill:#f48821;}.cls-35{fill:#f48720;}.cls-36{fill:#f4861f;}.cls-37{fill:#f5851f;}.cls-38{fill:#f5841e;}.cls-39{fill:#f5821e;}.cls-40{fill:#f5811d;}.cls-41{fill:#f5801c;}.cls-42{fill:#f67f1c;}.cls-43{fill:#f67e1b;}.cls-44{fill:#f67d1a;}.cls-45{fill:#f67c1a;}.cls-46{fill:#f67b19;}.cls-47{fill:#f77a18;}.cls-48{fill:#f77918;}.cls-49{fill:#f77817;}.cls-50{fill:#f77717;}.cls-51{fill:#f87616;}.cls-52{fill:#f87515;}.cls-53{fill:#f87415;}.cls-54{fill:#f87314;}.cls-55{fill:#f87213;}.cls-56{fill:#f97113;}.cls-57{fill:#f97012;}.cls-58{fill:#f96f12;}.cls-59{fill:#f96e11;}.cls-60{fill:#f96d10;}.cls-61{fill:#fa6c10;}.cls-62{fill:#fa6b0f;}.cls-63{fill:#fa6a0f;}.cls-64{fill:#fa690e;}.cls-65{fill:#fa680d;}.cls-66{fill:#fb670d;}.cls-67{fill:#fb660c;}.cls-68{fill:#fb650c;}.cls-69{fill:#fb640b;}.cls-70{fill:#fb630a;}.cls-71{fill:#fc620a;}.cls-72{fill:#fc6109;}.cls-73{fill:#fc6009;}.cls-74{fill:#fc5f08;}.cls-75{fill:#fc5e07;}.cls-76{fill:#fd5d07;}.cls-77{fill:#fd5c06;}.cls-78{fill:#fd5b06;}.cls-79{fill:#fd5b05;}.cls-80{fill:#fd5a05;}.cls-81{fill:#fe5904;}.cls-82{fill:#fe5804;}.cls-83{fill:#fe5703;}.cls-84{fill:#fe5602;}.cls-85{fill:#fe5502;}.cls-86{fill:#ff5401;}.cls-87{fill:#ff5300;}.cls-88{fill:#ff5200;}.cls-89{clip-path:url(#clip-path-2);}</style><clipPath id="clip-path"><path class="cls-1" d="M141.68,1A136.29,136.29,0,0,0,93.06,6.84a1.7,1.7,0,0,0,.74,3.3,123.4,123.4,0,0,1,29-.87c59.27,5.14,106.75,53.63,110.74,113a121.89,121.89,0,0,1-205,97.26A1.07,1.07,0,0,0,27,220.94a135.78,135.78,0,0,0,242.1-88.31C267.09,62.93,211.28,5.19,141.68,1Z"/></clipPath><clipPath id="clip-path-2"><path class="cls-1" d="M103,17.53C48.56,21,4.3,65.24.78,119.71A110.2,110.2,0,0,0,4,154.44a1.19,1.19,0,0,0,2.33-.37,99.64,99.64,0,0,1,.37-18.15c5.06-45.73,42-82.47,87.81-87.13a98.8,98.8,0,0,1,93.33,151.88,1.35,1.35,0,0,0,2.12,1.65A109.69,109.69,0,0,0,103,17.53Z"/></clipPath></defs><title>Fichier 7</title><g id="Calque_2" data-name="Calque 2"><g id="LOGO"><g class="cls-2"><rect class="cls-3" x="26.14" width="245.08" height="272.33"/><circle class="cls-3" cx="139.74" cy="137.08" r="131.74"/><circle class="cls-4" cx="139.74" cy="137.08" r="131.45"/><circle class="cls-5" cx="139.74" cy="137.08" r="131.16"/><circle class="cls-6" cx="139.74" cy="137.08" r="130.87"/><circle class="cls-7" cx="139.74" cy="137.08" r="130.58"/><circle class="cls-8" cx="139.74" cy="137.08" r="130.29"/><circle class="cls-9" cx="139.74" cy="137.08" r="130"/><circle class="cls-10" cx="139.74" cy="137.08" r="129.71"/><circle class="cls-11" cx="139.74" cy="137.08" r="129.42"/><circle class="cls-12" cx="139.74" cy="137.08" r="129.13"/><circle class="cls-13" cx="139.74" cy="137.08" r="128.84"/><circle class="cls-14" cx="139.74" cy="137.08" r="128.55"/><circle class="cls-15" cx="139.74" cy="137.08" r="128.25"/><circle class="cls-16" cx="139.74" cy="137.08" r="127.96"/><circle class="cls-17" cx="139.74" cy="137.08" r="127.67"/><circle class="cls-18" cx="139.74" cy="137.08" r="127.38"/><circle class="cls-19" cx="139.74" cy="137.08" r="127.09"/><circle class="cls-20" cx="139.74" cy="137.08" r="126.8"/><circle class="cls-21" cx="139.74" cy="137.08" r="126.51"/><circle class="cls-22" cx="139.74" cy="137.08" r="126.22"/><circle class="cls-23" cx="139.74" cy="137.08" r="125.93"/><circle class="cls-24" cx="139.74" cy="137.08" r="125.64"/><circle class="cls-25" cx="139.74" cy="137.08" r="125.35"/><circle class="cls-26" cx="139.74" cy="137.08" r="125.06"/><circle class="cls-27" cx="139.74" cy="137.08" r="124.76"/><circle class="cls-28" cx="139.74" cy="137.08" r="124.47"/><circle class="cls-29" cx="139.74" cy="137.08" r="124.18"/><circle class="cls-30" cx="139.74" cy="137.08" r="123.89"/><circle class="cls-31" cx="139.74" cy="137.08" r="123.6"/><circle class="cls-32" cx="139.74" cy="137.08" r="123.31"/><circle class="cls-33" cx="139.74" cy="137.08" r="123.02"/><circle class="cls-34" cx="139.74" cy="137.08" r="122.73"/><circle class="cls-35" cx="139.74" cy="137.08" r="122.44"/><circle class="cls-36" cx="139.74" cy="137.08" r="122.15"/><circle class="cls-37" cx="139.74" cy="137.08" r="121.86"/><circle class="cls-38" cx="139.74" cy="137.08" r="121.57"/><circle class="cls-39" cx="139.74" cy="137.08" r="121.28"/><circle class="cls-40" cx="139.74" cy="137.08" r="120.98"/><circle class="cls-41" cx="139.74" cy="137.08" r="120.69"/><circle class="cls-42" cx="139.74" cy="137.08" r="120.4"/><circle class="cls-43" cx="139.74" cy="137.08" r="120.11"/><circle class="cls-44" cx="139.74" cy="137.08" r="119.82"/><circle class="cls-45" cx="139.74" cy="137.08" r="119.53"/><circle class="cls-46" cx="139.74" cy="137.08" r="119.24"/><circle class="cls-47" cx="139.74" cy="137.08" r="118.95"/><circle class="cls-48" cx="139.74" cy="137.08" r="118.66"/><circle class="cls-49" cx="139.74" cy="137.08" r="118.37"/><circle class="cls-50" cx="139.74" cy="137.08" r="118.08"/><circle class="cls-51" cx="139.74" cy="137.08" r="117.79"/><circle class="cls-52" cx="139.74" cy="137.08" r="117.5"/><circle class="cls-53" cx="139.74" cy="137.08" r="117.2"/><circle class="cls-54" cx="139.74" cy="137.08" r="116.91"/><circle class="cls-55" cx="139.74" cy="137.08" r="116.62"/><circle class="cls-56" cx="139.74" cy="137.08" r="116.33"/><circle class="cls-57" cx="139.74" cy="137.08" r="116.04"/><circle class="cls-58" cx="139.74" cy="137.08" r="115.75"/><circle class="cls-59" cx="139.74" cy="137.08" r="115.46"/><circle class="cls-60" cx="139.74" cy="137.08" r="115.17"/><circle class="cls-61" cx="139.74" cy="137.08" r="114.88"/><circle class="cls-62" cx="139.74" cy="137.08" r="114.59"/><circle class="cls-63" cx="139.74" cy="137.08" r="114.3"/><circle class="cls-64" cx="139.74" cy="137.08" r="114.01"/><circle class="cls-65" cx="139.74" cy="137.08" r="113.72"/><circle class="cls-66" cx="139.74" cy="137.08" r="113.42"/><circle class="cls-67" cx="139.74" cy="137.08" r="113.13"/><circle class="cls-68" cx="139.74" cy="137.08" r="112.84"/><circle class="cls-69" cx="139.74" cy="137.08" r="112.55"/><circle class="cls-70" cx="139.74" cy="137.08" r="112.26"/><circle class="cls-71" cx="139.74" cy="137.08" r="111.97"/><circle class="cls-72" cx="139.74" cy="137.08" r="111.68"/><circle class="cls-73" cx="139.74" cy="137.08" r="111.39"/><circle class="cls-74" cx="139.74" cy="137.08" r="111.1"/><circle class="cls-75" cx="139.74" cy="137.08" r="110.81"/><circle class="cls-76" cx="139.74" cy="137.08" r="110.52"/><circle class="cls-77" cx="139.74" cy="137.08" r="110.23"/><circle class="cls-78" cx="139.74" cy="137.08" r="109.94"/><circle class="cls-79" cx="139.74" cy="137.08" r="109.64"/><circle class="cls-80" cx="139.74" cy="137.08" r="109.35"/><circle class="cls-81" cx="139.74" cy="137.08" r="109.06"/><circle class="cls-82" cx="139.74" cy="137.08" r="108.77"/><circle class="cls-83" cx="139.74" cy="137.08" r="108.48"/><circle class="cls-84" cx="139.74" cy="137.08" r="108.19"/><circle class="cls-85" cx="139.74" cy="137.08" r="107.9"/><circle class="cls-86" cx="139.74" cy="137.08" r="107.61"/><circle class="cls-86" cx="139.74" cy="137.08" r="107.32"/><circle class="cls-87" cx="139.74" cy="137.08" r="107.03"/><circle class="cls-88" cx="139.74" cy="137.08" r="106.74"/></g><g class="cls-89"><rect class="cls-3" y="13.45" width="219.93" height="190.07"/><path class="cls-3" d="M216.17,132.62a107.78,107.78,0,0,1-31.27,76.13v-1.22H33.9v1.22A107.78,107.78,0,0,1,2.63,132.62C2.63,73.16,50.43,25,109.4,25S216.17,73.16,216.17,132.62Z"/><path class="cls-4" d="M216,132.62a107.54,107.54,0,0,1-31.22,76v-1.07H34.05v1.07a107.53,107.53,0,0,1-31.21-76C2.84,73.28,50.55,25.17,109.4,25.17S216,73.28,216,132.62Z"/><path class="cls-5" d="M215.76,132.62a107.36,107.36,0,0,1-31.15,75.84v-.93H34.19v.93A107.36,107.36,0,0,1,3,132.62C3,73.39,50.66,25.37,109.4,25.37S215.76,73.39,215.76,132.62Z"/><path class="cls-6" d="M215.56,132.62a107.15,107.15,0,0,1-31.09,75.69v-.78H34.34v.78a107.12,107.12,0,0,1-31.1-75.69c0-59.12,47.53-107,106.16-107S215.56,73.5,215.56,132.62Z"/><path class="cls-7" d="M215.36,132.62a107,107,0,0,1-31,75.55v-.64H34.48v.64a107,107,0,0,1-31-75.55c0-59,47.43-106.84,106-106.84S215.36,73.62,215.36,132.62Z"/><path class="cls-8" d="M215.15,132.62a106.71,106.71,0,0,1-31,75.4v-.49H34.62V208a106.75,106.75,0,0,1-31-75.4C3.65,73.73,51,26,109.4,26S215.15,73.73,215.15,132.62Z"/><path class="cls-9" d="M215,132.62A106.51,106.51,0,0,1,184,207.88v-.35H34.77v.35A106.56,106.56,0,0,1,3.85,132.62C3.85,73.84,51.11,26.19,109.4,26.19S215,73.84,215,132.62Z"/><path class="cls-10" d="M214.75,132.62a106.35,106.35,0,0,1-30.86,75.11v-.2h-149v.2A106.34,106.34,0,0,1,4.06,132.62C4.06,74,51.22,26.4,109.4,26.4S214.75,74,214.75,132.62Z"/><path class="cls-11" d="M214.54,132.62a106.17,106.17,0,0,1-30.79,75v-.06H35.05v.06a106.17,106.17,0,0,1-30.79-75c0-58.55,47.07-106,105.14-106S214.54,74.07,214.54,132.62Z"/><path class="cls-12" d="M214.34,132.62a105.85,105.85,0,0,1-64.09,97.5V207.53H68.55v22.59a105.85,105.85,0,0,1-64.09-97.5c0-58.44,47-105.81,104.94-105.81S214.34,74.18,214.34,132.62Z"/><path class="cls-13" d="M214.14,132.62a105.61,105.61,0,0,1-64,97.31v-22.4H68.63v22.4a105.59,105.59,0,0,1-64-97.31C4.67,74.3,51.56,27,109.4,27S214.14,74.3,214.14,132.62Z"/><path class="cls-14" d="M213.93,132.62a105.39,105.39,0,0,1-63.84,97.12V207.53H68.71v22.21A105.43,105.43,0,0,1,4.87,132.62c0-58.21,46.8-105.4,104.53-105.4S213.93,74.41,213.93,132.62Z"/><path class="cls-15" d="M213.73,132.62A105.19,105.19,0,0,1,150,229.55v-22H68.79v22A105.19,105.19,0,0,1,5.07,132.62c0-58.1,46.71-105.19,104.33-105.19S213.73,74.52,213.73,132.62Z"/><path class="cls-16" d="M213.53,132.62a105,105,0,0,1-63.6,96.74V207.53H68.87v21.83A105,105,0,0,1,5.28,132.62c0-58,46.61-105,104.12-105S213.53,74.64,213.53,132.62Z"/><path class="cls-17" d="M213.32,132.62a104.77,104.77,0,0,1-63.47,96.55V207.53H69v21.64A104.77,104.77,0,0,1,5.48,132.62C5.48,74.75,52,27.84,109.4,27.84S213.32,74.75,213.32,132.62Z"/><path class="cls-18" d="M213.12,132.62A104.61,104.61,0,0,1,149.77,229V207.53H69V229A104.61,104.61,0,0,1,5.68,132.62C5.68,74.86,52.12,28,109.4,28S213.12,74.86,213.12,132.62Z"/><path class="cls-19" d="M212.91,132.62a104.35,104.35,0,0,1-63.22,96.18V207.53H69.11V228.8A104.39,104.39,0,0,1,5.89,132.62C5.89,75,52.23,28.25,109.4,28.25S212.91,75,212.91,132.62Z"/><path class="cls-20" d="M212.71,132.62a104.19,104.19,0,0,1-63.1,96V207.53H69.19v21.08a104.19,104.19,0,0,1-63.1-96C6.09,75.09,52.34,28.45,109.4,28.45S212.71,75.09,212.71,132.62Z"/><path class="cls-21" d="M212.51,132.62a104,104,0,0,1-63,95.8V207.53H69.27v20.89a104,104,0,0,1-63-95.8c0-57.42,46.17-104,103.11-104S212.51,75.2,212.51,132.62Z"/><path class="cls-22" d="M212.3,132.62a103.79,103.79,0,0,1-62.84,95.61v-20.7H69.35v20.7A103.77,103.77,0,0,1,6.5,132.62c0-57.3,46.07-103.76,102.9-103.76S212.3,75.32,212.3,132.62Z"/><path class="cls-23" d="M212.1,132.62A103.55,103.55,0,0,1,149.38,228V207.53H69.43V228A103.54,103.54,0,0,1,6.7,132.62c0-57.19,46-103.55,102.7-103.55S212.1,75.43,212.1,132.62Z"/><path class="cls-24" d="M211.9,132.62a103.35,103.35,0,0,1-62.6,95.23V207.53H69.5v20.32A103.35,103.35,0,0,1,6.9,132.62C6.9,75.54,52.79,29.27,109.4,29.27S211.9,75.54,211.9,132.62Z"/><path class="cls-25" d="M211.69,132.62a103.13,103.13,0,0,1-62.47,95V207.53H69.58v20.13a103.13,103.13,0,0,1-62.47-95c0-57,45.8-103.14,102.29-103.14S211.69,75.66,211.69,132.62Z"/><ellipse class="cls-26" cx="109.4" cy="132.62" rx="102.09" ry="102.94"/><ellipse class="cls-27" cx="109.4" cy="132.62" rx="101.89" ry="102.74"/><ellipse class="cls-28" cx="109.4" cy="132.62" rx="101.68" ry="102.53"/><ellipse class="cls-29" cx="109.4" cy="132.62" rx="101.48" ry="102.33"/><ellipse class="cls-30" cx="109.4" cy="132.62" rx="101.28" ry="102.12"/><ellipse class="cls-31" cx="109.4" cy="132.62" rx="101.07" ry="101.91"/><ellipse class="cls-32" cx="109.4" cy="132.62" rx="100.87" ry="101.71"/><ellipse class="cls-33" cx="109.4" cy="132.62" rx="100.67" ry="101.5"/><ellipse class="cls-34" cx="109.4" cy="132.62" rx="100.46" ry="101.3"/><ellipse class="cls-35" cx="109.4" cy="132.62" rx="100.26" ry="101.09"/><ellipse class="cls-36" cx="109.4" cy="132.62" rx="100.06" ry="100.89"/><ellipse class="cls-37" cx="109.4" cy="132.62" rx="99.85" ry="100.68"/><ellipse class="cls-38" cx="109.4" cy="132.62" rx="99.65" ry="100.48"/><ellipse class="cls-39" cx="109.4" cy="132.62" rx="99.45" ry="100.27"/><ellipse class="cls-40" cx="109.4" cy="132.62" rx="99.24" ry="100.07"/><ellipse class="cls-41" cx="109.4" cy="132.62" rx="99.04" ry="99.86"/><ellipse class="cls-42" cx="109.4" cy="132.62" rx="98.83" ry="99.66"/><ellipse class="cls-43" cx="109.4" cy="132.62" rx="98.63" ry="99.45"/><ellipse class="cls-44" cx="109.4" cy="132.62" rx="98.43" ry="99.25"/><ellipse class="cls-45" cx="109.4" cy="132.62" rx="98.22" ry="99.04"/><ellipse class="cls-46" cx="109.4" cy="132.62" rx="98.02" ry="98.84"/><ellipse class="cls-47" cx="109.4" cy="132.62" rx="97.82" ry="98.63"/><ellipse class="cls-48" cx="109.4" cy="132.62" rx="97.61" ry="98.43"/><ellipse class="cls-49" cx="109.4" cy="132.62" rx="97.41" ry="98.22"/><ellipse class="cls-50" cx="109.4" cy="132.62" rx="97.21" ry="98.02"/><ellipse class="cls-51" cx="109.4" cy="132.62" rx="97" ry="97.81"/><ellipse class="cls-52" cx="109.4" cy="132.62" rx="96.8" ry="97.61"/><ellipse class="cls-53" cx="109.4" cy="132.62" rx="96.6" ry="97.4"/><ellipse class="cls-54" cx="109.4" cy="132.62" rx="96.39" ry="97.2"/><ellipse class="cls-55" cx="109.4" cy="132.62" rx="96.19" ry="96.99"/><ellipse class="cls-56" cx="109.4" cy="132.62" rx="95.99" ry="96.79"/><ellipse class="cls-57" cx="109.4" cy="132.62" rx="95.78" ry="96.58"/><ellipse class="cls-58" cx="109.4" cy="132.62" rx="95.58" ry="96.38"/><ellipse class="cls-59" cx="109.4" cy="132.62" rx="95.38" ry="96.17"/><ellipse class="cls-60" cx="109.4" cy="132.62" rx="95.17" ry="95.97"/><ellipse class="cls-61" cx="109.4" cy="132.62" rx="94.97" ry="95.76"/><ellipse class="cls-62" cx="109.4" cy="132.62" rx="94.77" ry="95.56"/><ellipse class="cls-63" cx="109.4" cy="132.62" rx="94.56" ry="95.35"/><ellipse class="cls-64" cx="109.4" cy="132.62" rx="94.36" ry="95.15"/><ellipse class="cls-65" cx="109.4" cy="132.62" rx="94.16" ry="94.94"/><ellipse class="cls-66" cx="109.4" cy="132.62" rx="93.95" ry="94.74"/><ellipse class="cls-67" cx="109.4" cy="132.62" rx="93.75" ry="94.53"/><ellipse class="cls-68" cx="109.4" cy="132.62" rx="93.55" ry="94.32"/><ellipse class="cls-69" cx="109.4" cy="132.62" rx="93.34" ry="94.12"/><ellipse class="cls-70" cx="109.4" cy="132.62" rx="93.14" ry="93.91"/><ellipse class="cls-71" cx="109.4" cy="132.62" rx="92.94" ry="93.71"/><ellipse class="cls-72" cx="109.4" cy="132.62" rx="92.73" ry="93.5"/><ellipse class="cls-73" cx="109.4" cy="132.62" rx="92.53" ry="93.3"/><ellipse class="cls-74" cx="109.4" cy="132.62" rx="92.32" ry="93.09"/><ellipse class="cls-75" cx="109.4" cy="132.62" rx="92.12" ry="92.89"/><ellipse class="cls-76" cx="109.4" cy="132.62" rx="91.92" ry="92.68"/><ellipse class="cls-77" cx="109.4" cy="132.62" rx="91.71" ry="92.48"/><ellipse class="cls-78" cx="109.4" cy="132.62" rx="91.51" ry="92.27"/><ellipse class="cls-79" cx="109.4" cy="132.62" rx="91.31" ry="92.07"/><ellipse class="cls-80" cx="109.4" cy="132.62" rx="91.1" ry="91.86"/><ellipse class="cls-81" cx="109.4" cy="132.62" rx="90.9" ry="91.66"/><ellipse class="cls-82" cx="109.4" cy="132.62" rx="90.7" ry="91.45"/><ellipse class="cls-83" cx="109.4" cy="132.62" rx="90.49" ry="91.25"/><ellipse class="cls-84" cx="109.4" cy="132.62" rx="90.29" ry="91.04"/><ellipse class="cls-85" cx="109.4" cy="132.62" rx="90.09" ry="90.84"/><ellipse class="cls-86" cx="109.4" cy="132.62" rx="89.88" ry="90.63"/><ellipse class="cls-86" cx="109.4" cy="132.62" rx="89.68" ry="90.43"/><ellipse class="cls-87" cx="109.4" cy="132.62" rx="89.48" ry="90.22"/><ellipse class="cls-88" cx="109.4" cy="132.62" rx="89.27" ry="90.02"/></g></g></g></svg>